<svg xmlns="http://www.w3.org/2000/svg" xmlns:xlink="http://www.w3.org/1999/xlink" id="Laag_1" data-name="Laag 1" viewBox="0 0 523.63 479"><defs><style>      .cls-1 {        fill: none;      }      .cls-2 {        fill: #d9d9ff;      }      .cls-3 {        fill: #bca6ff;      }      .cls-4 {        clip-path: url(#clippath-1);      }      .cls-5 {        clip-path: url(#clippath-2);      }      .cls-6 {        fill: #fff;      }      .cls-7 {        fill: #efb89f;      }      .cls-8 {        fill: #6400cd;      }      .cls-9 {        fill: #fff023;      }      .cls-10 {        clip-path: url(#clippath);      }    </style><clipPath id="clippath"><path class="cls-1" d="M10.56,224.46l-.23.84c-.11.43.15.86.57.98.13.03.27.03.4,0l5.78-1.55-5.2-5.2-1.33,4.94Z"></path></clipPath><clipPath id="clippath-1"><path class="cls-1" d="M48.44,230.14c0,4.22,3.42,7.63,7.64,7.63s7.63-3.42,7.63-7.63c0-4.22-3.42-7.63-7.63-7.63-4.21,0-7.63,3.41-7.63,7.63,0,0,0,0,0,0Z"></path></clipPath><clipPath id="clippath-2"><path class="cls-1" d="M48.44,210.34c0,4.22,3.42,7.63,7.63,7.64s7.63-3.42,7.63-7.63c0-4.22-3.42-7.63-7.63-7.63h0c-4.22,0-7.63,3.42-7.63,7.63Z"></path></clipPath></defs><path id="Path_568" data-name="Path 568" class="cls-7" d="M409.73,102.96c-3.09,2.8-6.71,7.61-9.22,7.25-3.88-.56-4.63-3.86-5.4-6.36-1.38-4.36-2.19-9.93-1.69-19.39,0,0,4.54-20.94-3.74-25.61-9.76-7.4-25.47,4.12-36.89,4.93-13.08.92-15.6-6.68-22.73-6.19-4.14,6.83-6.73,14.49-7.56,22.43-1.48,15.38-3.59,31.14-.7,49.35,2.11,13.32,6.23,19.67,15.03,23.26,6.02,2.46,14.74,2.22,14.74,2.22l-.29,13.49c-.49,26,37.57,21.89,51.5,3.04l.31-41.04"></path><path id="Path_569" data-name="Path 569" class="cls-8" d="M351.58,154.85v-.02c10.41.16,26.74-1.66,35.98-9.51,6.13-5.21,11.33-16.14,11.33-16.14-.68,6.79-3.26,13.24-7.45,18.62-4.96,6.14-14.92,9.8-21.62,10.96-6.09.89-12.22,1.48-18.37,1.76l.13-5.68Z"></path><path id="Path_570" data-name="Path 570" class="cls-6" d="M335.01,115.98c.55-3.8,4.89-6.91,8.55-7.14,4.04-.16,7.71,2.33,9.06,6.14.46,1.94.76,3.91.87,5.9.28,1.97.97,4.04,2.58,5.21,1.49.98,3.35,1.2,5.02.57,1.65-.63,3.06-1.74,4.08-3.19.14,2.14-.8,4.21-2.5,5.51-1.7,1.27-3.69,2.07-5.79,2.32-4.23.67-8.27.43-12.08-1.58-3.46-1.83-10.81-6.68-9.79-13.73"></path><path id="Path_571" data-name="Path 571" class="cls-6" d="M339.52,116.63c.55-3.8-2.73-8.01-6.18-9.27-3.83-1.3-8.06.04-10.43,3.32-.99,1.73-1.83,3.54-2.51,5.41-.82,1.81-2.07,3.6-3.95,4.26-1.7.52-3.55.2-4.98-.87-1.4-1.08-2.44-2.54-3-4.21-.74,2.01-.43,4.26.83,5.99,1.27,1.7,2.96,3.03,4.9,3.86,3.87,1.84,7.81,2.76,12.03,1.9,3.84-.78,12.26-3.35,13.28-10.39"></path><path id="Path_572" data-name="Path 572" class="cls-6" d="M416.64,40.76c.22.9,9.1,1.88,10.88,6.78,2.07,5.68.48,17.42-.94,32.02-2.53,10.25-4,14.7-9.54,21.65-5.23,6.39-12.25,15.69-20.21,13.53-7.23-16.4-12.2-41.52-6.37-51.56"></path><path id="Path_573" data-name="Path 573" class="cls-6" d="M395.71,67.08c-20.19,1.91-51.39,6.67-69.02-4.91-4-2.81-6.98-4.61-9.94-10.26l-1.38-4.4c-1.55-6.6-1.04-13.04,3.13-18.67,3.66-6.45,11.58-10.88,18.84-13.46l-.56,2.04c-.8,3.45-.07,7.08,2,9.95.77,1.13,1.98,1.88,3.33,2.07,2.3-.93,5.16-5.78,6.96-7.63,1.77-1.79,3.7-3.42,5.75-4.88,6.88-4.95,15.33-7.2,23.76-6.33,12.21,1.37,21.2,7.22,28.89,15.71,4.05,5.57,8.21,15.61,8.5,18.1s.47,18.44-20.26,22.68"></path><path id="Path_574" data-name="Path 574" class="cls-7" d="M408.87,98.71c7.82-4.44,17.36,3.64,11.78,12.82-5.58,9.18-13.52,21.08-19.81,17.14-2.56-1.6-6.42-7.17-3.41-14.11,3.79-8.74,7.96-13.87,11.44-15.85"></path><rect id="Rectangle_258" data-name="Rectangle 258" class="cls-8" x="337.82" y="182.82" width="3.57" height="16.7" transform="translate(32.17 430.67) rotate(-67.29)"></rect><rect id="Rectangle_259" data-name="Rectangle 259" class="cls-8" x="405.91" y="189.38" width="16.7" height="3.57" transform="translate(-41.68 174.51) rotate(-22.68)"></rect><path id="Path_575" data-name="Path 575" class="cls-8" d="M383.21,194.11c13.64-9.17,30.7-19.11,27.68-2.74s4.47,22.09-1.45,27.63-21.24-9.96-26.08-12.15-.15-12.73-.15-12.73"></path><path id="Path_576" data-name="Path 576" class="cls-8" d="M370.85,194.11c-13.64-9.17-30.7-19.11-27.68-2.74s-4.47,22.09,1.45,27.63,21.24-9.96,26.08-12.15.15-12.73.15-12.73"></path><path id="Path_577" data-name="Path 577" class="cls-8" d="M364.83,201.39c0-6.75,5.47-12.21,12.21-12.21,6.75,0,12.21,5.47,12.21,12.21,0,6.75-5.47,12.21-12.21,12.21h0c-6.74,0-12.21-5.47-12.21-12.21h0"></path><path id="Path_578" data-name="Path 578" class="cls-8" d="M294.74,201.16l-6.54,2.56c-9.44,4.5-18.09,18.41-31.42,40.48-6.78,11.23-22.15,37.42-34.49,58.54l54.7,35.65,23.21-31.98"></path><path id="Path_579" data-name="Path 579" class="cls-6" d="M277.43,340.81l-57.55-37.5.86-1.47c9.69-16.57,27.05-46.21,34.51-58.56,14-23.17,22.39-36.51,32.18-41.17l6.66-2.61,1.3,3.33-6.54,2.56c-8.73,4.16-17.3,17.81-30.54,39.74-7.23,11.97-23.8,40.26-33.62,57.05l51.85,33.79,22.21-30.61,2.89,2.1-24.21,33.36Z"></path><path id="Path_580" data-name="Path 580" class="cls-8" d="M435.99,192.4l-14.03,57.82-42.17,67.96-30.52-13.37-37.66-100.05,6.4-12.36,13.69-5.92,16.48-17.37,28.82,9.89,28.82-9.89,16.48,17.37,13.7,5.92Z"></path><path id="Path_581" data-name="Path 581" class="cls-6" d="M380.49,320.43l-32.63-14.29-38.2-101.5,7.06-13.64,13.94-6.03,17.01-17.94,29.33,10.07,29.33-10.07,17.02,17.94,14.74,6.37-14.61,59.8-42.99,69.28ZM350.67,303.47l28.42,12.45,41.2-66.4,13.61-56.08-12.64-5.47-15.94-16.8-28.31,9.72-28.31-9.72-15.94,16.8-13.44,5.82-5.74,11.09,37.11,98.6Z"></path><rect id="Rectangle_260" data-name="Rectangle 260" class="cls-6" x="337.83" y="181.09" width="3.57" height="16.71" transform="translate(33.81 429.67) rotate(-67.31)"></rect><rect id="Rectangle_261" data-name="Rectangle 261" class="cls-6" x="405.91" y="187.66" width="16.7" height="3.57" transform="translate(-41.01 174.38) rotate(-22.68)"></rect><path id="Path_582" data-name="Path 582" class="cls-6" d="M318.43,190.31l-24.25,9.36c5.21,27.47,3.72,95.87,3.72,129.02v150.31h79.18l-.05-178.02c-20.27-22.4-50.22-78.6-58.61-110.68"></path><path id="Path_583" data-name="Path 583" class="cls-6" d="M435.42,190.31l24.65,8.79c-5.21,27.48-5.08,95.94-5.08,129.09l.03,150.82h-77.94l-.05-178.02c17.37-16.65,49.99-78.6,58.38-110.68"></path><path id="Path_584" data-name="Path 584" class="cls-8" d="M496.45,247.72c-8.24-30.09-19.97-39.5-29.42-44l-8.33-3.2c-4.75,30.05-4.85,73.52-3.7,120.58l58.01-10.65c-5.89-27.35-12.5-48.46-16.55-62.73"></path><rect id="Rectangle_262" data-name="Rectangle 262" class="cls-2" x="394.23" y="344.43" width="72.15" height="92.13"></rect><path id="Path_585" data-name="Path 585" class="cls-6" d="M511.25,310.73c-4.8-22.29-10.15-40.68-14.06-54.1-.89-3.06-1.72-5.9-2.46-8.52-8.18-29.89-19.51-38.61-28.46-42.87l-8.21-3.14,1.28-3.34,8.33,3.2c9.02,4.29,21.84,13.57,30.5,45.2.73,2.59,1.56,5.42,2.45,8.48,3.92,13.48,9.3,31.93,14.12,54.35l-3.49.74Z"></path><path id="Path_586" data-name="Path 586" class="cls-7" d="M216.01,326.47l-4.38,7.81-64.39-44.51-.29.56c-.05-.18-.07-.39-.13-.56l-43.9-2.81c-12.74.8-30.3.3-29.22,3.25-1.35.81-3.98-.33-4.27.74-1.5,5.54,11.28,15.82,14.87,17.41,5.61,2.33,11.36,4.33,17.21,5.97,4.68,1.29,12.76,3.32,19.77,3.8,3.45.15,6.85.87,10.07,2.12,28.15,26.94,68.21,71.43,90.98,70.22,9.59.24,24.89-15.28,38.49-34.45l-44.82-29.55Z"></path><path id="Path_587" data-name="Path 587" class="cls-7" d="M519.47,355.63c-.89-7-2.65-16.5-3.68-21.82l-60.01,10.22-67.11,2.66-14.13-4.96c-14.39-7.1-36.4-19.02-35.33-10.53.41,3.23,4.28,4.28,11.09,8.6-6.1-.28-12.93-.52-19.08-1.41-6.1-.87-12.1-2.39-17.87-4.54-4.07-1.41-5.83,3.37-3.96,6.41-1.23,2-.1,6.47,2.61,8.24-1.87,1.91-1.63,5.65,5.05,8.71-3.17,7.05,11.86,11.42,29.55,15.34,8.6,1.91,27.18,3.29,35.59,3.85l-.02.2s85.18,10.74,105.1,10.31c23.93-.2,35.16-8.09,32.21-31.28"></path><path id="Path_588" data-name="Path 588" class="cls-6" d="M216.32,285.19H0v5.29c0,1.4,1.13,2.53,2.53,2.53h211.26c1.4,0,2.53-1.13,2.53-2.53v-5.29Z"></path><rect id="Rectangle_263" data-name="Rectangle 263" class="cls-8" x="382.19" y="344.43" width="72.15" height="92.13"></rect><path id="Path_589" data-name="Path 589" class="cls-6" d="M73.5.28c13.95-2.9,18.62,17.78,4.78,21.15-13.95,2.9-18.62-17.77-4.78-21.15"></path><path id="Path_590" data-name="Path 590" class="cls-6" d="M77.01,15.87C33.5,25.71,4.03,66.98,7.77,112.83l173.46-39.18C164.9,30.64,120.53,6.04,77.01,15.87"></path><path id="Path_591" data-name="Path 591" class="cls-6" d="M384.17,192.38c13.64-9.17,30.7-19.11,27.68-2.74s4.47,22.09-1.45,27.63-21.24-9.96-26.08-12.15-.15-12.73-.15-12.73"></path><path id="Path_592" data-name="Path 592" class="cls-6" d="M371.81,192.38c-13.64-9.17-30.7-19.11-27.68-2.74s-4.47,22.09,1.45,27.63,21.24-9.96,26.08-12.15.15-12.73.15-12.73"></path><path id="Path_593" data-name="Path 593" class="cls-6" d="M365.79,199.67c0-6.75,5.47-12.21,12.21-12.21s12.21,5.47,12.21,12.21c0,6.75-5.47,12.21-12.21,12.21h0c-6.74,0-12.21-5.47-12.21-12.21h0"></path><path id="Path_594" data-name="Path 594" class="cls-8" d="M451.38,321.76l65.91-12.1,4.25,23.16-66.07,11.21-4.09-22.27Z"></path><path id="Path_595" data-name="Path 595" class="cls-6" d="M454.03,346.09l-4.73-25.76,69.42-12.74,4.9,26.7-69.59,11.81ZM453.46,323.19l3.45,18.78,62.55-10.61-3.6-19.62-62.39,11.45Z"></path><rect id="Rectangle_264" data-name="Rectangle 264" class="cls-8" x="231.59" y="295.74" width="23.55" height="69.59" transform="translate(-166.42 354) rotate(-56.91)"></rect><path id="Path_596" data-name="Path 596" class="cls-6" d="M266.6,361.86l-61.29-39.94,14.81-22.72,61.29,39.93-14.81,22.73ZM210.26,320.88l55.3,36.04,10.91-16.74-55.3-36.03-10.91,16.73Z"></path><path id="Path_597" data-name="Path 597" class="cls-9" d="M439.16,281.78v-6.78c0-5.54-5.38-10.07-11.97-10.07s-11.97,4.53-11.97,10.07v6.78h23.93Z"></path><rect id="Rectangle_265" data-name="Rectangle 265" class="cls-8" x="409.57" y="279.99" width="33.45" height="3.57"></rect><path id="Path_598" data-name="Path 598" class="cls-6" d="M197.15,264.89H45.01c-5.02,0-9.09-4.07-9.09-9.09h0v-116.03c0-5.02,4.07-9.09,9.09-9.09h152.14c5.02,0,9.09,4.07,9.09,9.09h0v116.03c0,5.02-4.07,9.09-9.09,9.09h0"></path><path id="Path_599" data-name="Path 599" class="cls-8" d="M184.68,252.42H32.54c-5.02,0-9.09-4.07-9.09-9.09h0v-116.03c0-5.02,4.07-9.09,9.09-9.09h152.14c5.02,0,9.09,4.07,9.09,9.09h0v116.03c0,5.02-4.07,9.09-9.09,9.09h0"></path><path id="Path_600" data-name="Path 600" class="cls-6" d="M184.68,254.21H32.54c-6.01,0-10.87-4.87-10.88-10.88v-116.03c0-6.01,4.87-10.87,10.88-10.88h152.14c6.01,0,10.87,4.87,10.88,10.88v116.03c0,6.01-4.87,10.87-10.88,10.88M32.54,119.99c-4.03,0-7.3,3.27-7.3,7.31v116.03c0,4.03,3.27,7.3,7.3,7.31h152.14c4.03,0,7.3-3.27,7.31-7.31v-116.03c0-4.03-3.27-7.3-7.31-7.31H32.54Z"></path><path id="Path_601" data-name="Path 601" class="cls-2" d="M96.79,192.93h-52.42c-2.6,0-4.71-2.12-4.72-4.72v-23.6c0-2.6,2.12-4.71,4.72-4.72h52.42c2.6,0,4.71,2.11,4.72,4.72v23.6c0,2.6-2.12,4.71-4.72,4.72"></path><path id="Path_602" data-name="Path 602" class="cls-2" d="M172.85,192.93h-52.42c-2.6,0-4.71-2.12-4.72-4.72v-23.6c0-2.6,2.12-4.71,4.72-4.72h52.42c2.6,0,4.71,2.11,4.72,4.72v23.6c0,2.6-2.12,4.71-4.72,4.72"></path><path id="Path_603" data-name="Path 603" class="cls-9" d="M.48,215.51c0-11.3,9.16-20.46,20.46-20.46,11.3,0,20.46,9.16,20.46,20.46,0,11.3-9.16,20.46-20.46,20.46h0c-11.3,0-20.46-9.16-20.46-20.46"></path><path id="Path_604" data-name="Path 604" class="cls-8" d="M17.09,224.71l-5.2-5.2,13.85-13.85c.84-.84,2.2-.84,3.05,0l2.15,2.15c.84.84.84,2.21,0,3.05l-13.85,13.85Z"></path><path id="Path_605" data-name="Path 605" class="cls-6" d="M11.31,226.27l5.78-1.55-5.21-5.2-1.32,4.94-.22.84c-.11.43.15.86.58.97.13.03.27.03.4,0"></path><g id="Group_237" data-name="Group 237"><g class="cls-10"><g id="Group_236" data-name="Group 236"><rect id="Rectangle_267" data-name="Rectangle 267" class="cls-8" x="9.97" y="222.94" width="2.52" height="4.81" transform="translate(-156.05 73.94) rotate(-45)"></rect></g></g></g><path id="Path_607" data-name="Path 607" class="cls-3" d="M204.29,140.38l1.35,5.98c.44,1.95,2.38,3.17,4.33,2.73.4-.09.79-.25,1.13-.47l5.18-3.27,4.99,4.99-3.27,5.18c-1.07,1.69-.56,3.92,1.13,4.99.35.22.73.38,1.13.47l5.98,1.35v7.06l-5.98,1.35c-1.95.44-3.17,2.38-2.73,4.33.09.4.25.79.47,1.13l3.27,5.18-4.99,4.99-5.18-3.27c-1.69-1.07-3.92-.56-4.99,1.13-.22.35-.38.73-.47,1.13l-1.35,5.98h-7.06l-1.35-5.98c-.44-1.95-2.38-3.17-4.33-2.73-.4.09-.78.25-1.13.47l-5.18,3.27-4.99-4.99,3.27-5.18c1.07-1.69.56-3.92-1.13-4.99-.35-.22-.73-.38-1.13-.47l-5.98-1.35v-7.06l5.98-1.35c1.95-.44,3.17-2.38,2.73-4.33-.09-.4-.25-.79-.47-1.13l-3.27-5.18,4.99-4.99,5.18,3.27c1.69,1.07,3.92.56,4.99-1.13.22-.35.38-.73.47-1.13l1.35-5.98h7.05Z"></path><path id="Path_608" data-name="Path 608" class="cls-8" d="M193.65,165.86c0-3.92,3.18-7.11,7.11-7.11s7.11,3.18,7.11,7.11-3.18,7.11-7.11,7.11-7.11-3.18-7.11-7.11h0"></path><path id="Path_609" data-name="Path 609" class="cls-3" d="M179.33,188.21l.68,2.99c.22.97,1.19,1.59,2.16,1.37.2-.05.39-.12.57-.23l2.59-1.64,2.49,2.5-1.64,2.59c-.53.84-.28,1.96.56,2.49.17.11.37.19.57.23l2.99.68v3.53l-2.99.68c-.97.22-1.59,1.19-1.37,2.16.05.2.12.39.23.57l1.64,2.59-2.49,2.49-2.59-1.64c-.84-.53-1.96-.28-2.5.56-.11.17-.19.37-.23.57l-.68,2.99h-3.53l-.68-2.99c-.22-.97-1.19-1.59-2.16-1.37-.2.05-.39.12-.57.23l-2.59,1.64-2.5-2.49,1.64-2.59c.53-.84.28-1.96-.56-2.5-.17-.11-.37-.19-.57-.23l-2.99-.68v-3.53l2.99-.68c.97-.22,1.59-1.19,1.37-2.16-.05-.2-.12-.39-.23-.57l-1.64-2.59,2.5-2.5,2.59,1.64c.84.53,1.96.28,2.49-.56.11-.17.19-.37.23-.57l.68-2.99h3.53Z"></path><path id="Path_610" data-name="Path 610" class="cls-8" d="M174.01,200.95c0-1.96,1.59-3.55,3.55-3.55,1.96,0,3.55,1.59,3.55,3.55,0,1.96-1.59,3.55-3.55,3.55-1.96,0-3.55-1.59-3.55-3.55h0"></path><path id="Path_611" data-name="Path 611" class="cls-3" d="M216.27,193.18l1.06,4.7c.35,1.53,1.87,2.49,3.4,2.14.32-.07.62-.2.89-.37l4.07-2.57,3.92,3.92-2.57,4.07c-.84,1.33-.44,3.08.89,3.92.27.17.57.3.89.37l4.7,1.06v5.54l-4.7,1.06c-1.53.35-2.49,1.87-2.14,3.4.07.32.2.62.37.89l2.57,4.07-3.92,3.92-4.07-2.57c-1.33-.84-3.08-.44-3.92.89-.17.27-.3.57-.37.89l-1.06,4.7h-5.54l-1.06-4.7c-.35-1.53-1.87-2.49-3.4-2.14-.32.07-.62.2-.89.37l-4.07,2.57-3.92-3.92,2.57-4.07c.84-1.33.44-3.08-.89-3.92-.27-.17-.57-.3-.89-.37l-4.7-1.06v-5.54l4.7-1.06c1.53-.35,2.49-1.87,2.14-3.4-.07-.32-.2-.62-.37-.89l-2.57-4.07,3.92-3.92,4.07,2.57c1.33.84,3.08.44,3.92-.89.17-.27.3-.57.37-.89l1.06-4.7h5.54Z"></path><path id="Path_612" data-name="Path 612" class="cls-8" d="M207.92,213.19c0-3.08,2.5-5.58,5.58-5.58,3.08,0,5.58,2.5,5.58,5.58,0,3.08-2.5,5.58-5.58,5.58-3.08,0-5.58-2.5-5.58-5.58h0"></path><path id="Path_613" data-name="Path 613" class="cls-2" d="M148.26,215.13h-73.63c-2.64,0-4.79-2.14-4.78-4.79,0-2.64,2.14-4.78,4.78-4.78h73.63c2.64,0,4.79,2.14,4.79,4.78,0,2.64-2.14,4.79-4.78,4.79h0"></path><path id="Path_614" data-name="Path 614" class="cls-6" d="M110.24,215.13h-35.61c-2.64,0-4.79-2.14-4.79-4.78s2.14-4.79,4.78-4.79h35.61v9.57Z"></path><path id="Path_615" data-name="Path 615" class="cls-2" d="M148.26,234.93h-73.63c-2.64,0-4.79-2.14-4.78-4.79,0-2.64,2.14-4.78,4.78-4.78h73.63c2.64,0,4.79,2.14,4.79,4.78,0,2.64-2.14,4.79-4.78,4.79h0"></path><path id="Path_616" data-name="Path 616" class="cls-2" d="M48.44,230.14c0-4.22,3.42-7.63,7.63-7.63s7.63,3.42,7.63,7.63c0,4.22-3.42,7.63-7.63,7.63-4.22,0-7.63-3.42-7.64-7.63h0"></path><g id="Group_241" data-name="Group 241"><g class="cls-4"><g id="Group_240" data-name="Group 240"><path id="Path_617" data-name="Path 617" class="cls-6" d="M51.2,238.62v-1.88c-.04-2.69,2.11-4.9,4.8-4.94s4.9,2.11,4.94,4.8c0,.05,0,.09,0,.14v1.88h-9.74Z"></path><path id="Path_618" data-name="Path 618" class="cls-6" d="M52.81,228.61c0-1.8,1.46-3.26,3.26-3.26,1.8,0,3.26,1.46,3.26,3.26,0,1.8-1.46,3.26-3.26,3.26h0c-1.8,0-3.26-1.46-3.26-3.26h0"></path></g></g></g><path id="Path_620" data-name="Path 620" class="cls-2" d="M48.44,210.34c0-4.22,3.42-7.63,7.64-7.63,4.22,0,7.63,3.42,7.63,7.64,0,4.22-3.42,7.63-7.63,7.63-4.22,0-7.63-3.42-7.64-7.63h0"></path><g id="Group_245" data-name="Group 245"><g class="cls-5"><g id="Group_244" data-name="Group 244"><path id="Path_621" data-name="Path 621" class="cls-6" d="M51.2,218.83v-1.88c-.04-2.69,2.11-4.9,4.8-4.94,2.69-.04,4.9,2.11,4.94,4.8,0,.05,0,.09,0,.14v1.88h-9.74Z"></path><path id="Path_622" data-name="Path 622" class="cls-6" d="M52.81,208.82c0-1.8,1.46-3.26,3.26-3.26,1.8,0,3.26,1.46,3.26,3.26,0,1.8-1.46,3.26-3.26,3.26h0c-1.8,0-3.26-1.46-3.26-3.26h0"></path></g></g></g><path id="Path_624" data-name="Path 624" class="cls-6" d="M137.71,234.93h-63.17c-2.6,0-4.7-2.1-4.7-4.7v-.18c0-2.59,2.11-4.69,4.7-4.69h63.17v9.58Z"></path><path id="Path_625" data-name="Path 625" class="cls-6" d="M46.2,148.41c.06,1.8-1.36,3.31-3.16,3.37-.04,0-.08,0-.12,0h-2.69v-6.74h2.69c1.8,0,3.27,1.45,3.27,3.25,0,.04,0,.08,0,.12M44.72,148.41c.08-.95-.62-1.8-1.58-1.88-.07,0-.14,0-.21,0h-1.15v3.77h1.15c.96.03,1.76-.72,1.79-1.67,0-.07,0-.14,0-.21"></path><path id="Path_626" data-name="Path 626" class="cls-6" d="M51.33,150.72h-2.5l-.34,1.06h-1.68l2.29-6.74h1.96l2.29,6.74h-1.69l-.34-1.06ZM50.87,149.27l-.79-2.47-.79,2.47h1.58Z"></path><path id="Path_627" data-name="Path 627" class="cls-6" d="M54.02,150.25l1.33-.77c.21.59.79.97,1.41.93.73,0,.92-.29.92-.55,0-.42-.39-.58-1.4-.86s-1.98-.76-1.98-2.05c.03-1.16,1-2.08,2.16-2.06.03,0,.07,0,.1,0,1.05-.04,2.02.56,2.46,1.52l-1.3.76c-.17-.49-.65-.8-1.16-.78-.48,0-.72.24-.72.51,0,.31.16.52,1.21.84,1.02.31,2.17.67,2.17,2.09,0,1.3-1.04,2.07-2.5,2.07-1.17.1-2.26-.58-2.69-1.67"></path><path id="Path_628" data-name="Path 628" class="cls-6" d="M65.69,145.04v6.74h-1.54v-2.68h-2.12v2.68h-1.54v-6.74h1.54v2.58h2.12v-2.58h1.54Z"></path><path id="Path_629" data-name="Path 629" class="cls-6" d="M72.41,149.8c-.02,1.11-.94,2-2.05,1.98-.04,0-.08,0-.12,0h-2.83v-6.74h2.63c1.09-.09,2.04.72,2.12,1.81,0,.04,0,.08,0,.11.01.51-.2.99-.59,1.32.53.32.84.9.83,1.52M68.95,146.48v1.19h1.1c.31.01.58-.24.59-.55,0-.02,0-.03,0-.05.02-.31-.22-.58-.53-.6-.02,0-.04,0-.06,0h-1.1ZM70.87,149.68c.02-.34-.24-.62-.57-.64-.02,0-.04,0-.06,0h-1.29v1.29h1.29c.34.01.62-.25.63-.58,0-.02,0-.04,0-.06"></path><path id="Path_630" data-name="Path 630" class="cls-6" d="M73.46,148.4c0-1.93,1.57-3.5,3.5-3.5s3.5,1.57,3.5,3.5-1.57,3.5-3.5,3.5c-1.92.01-3.49-1.53-3.5-3.45,0-.02,0-.03,0-.05M78.93,148.4c-.02-1.08-.92-1.95-2-1.93-1.08.02-1.95.92-1.93,2,.02,1.07.89,1.93,1.96,1.93,1.06.03,1.94-.81,1.97-1.86,0-.05,0-.09,0-.14"></path><path id="Path_631" data-name="Path 631" class="cls-6" d="M85.6,150.72h-2.5l-.34,1.06h-1.69l2.29-6.74h1.96l2.29,6.74h-1.69l-.34-1.06ZM85.14,149.27l-.79-2.47-.79,2.47h1.58Z"></path><path id="Path_632" data-name="Path 632" class="cls-6" d="M91.04,149.56h-.73v2.21h-1.54v-6.74h2.69c1.27,0,2.3,1.02,2.31,2.29,0,0,0,.01,0,.02-.01.83-.49,1.59-1.24,1.95l1.43,2.47h-1.65l-1.27-2.21ZM90.3,148.22h1.15c.48-.05.82-.49.77-.96-.05-.4-.36-.72-.77-.77h-1.15v1.73Z"></path><path id="Path_633" data-name="Path 633" class="cls-6" d="M101.22,148.41c.06,1.8-1.36,3.31-3.16,3.37-.04,0-.08,0-.12,0h-2.69v-6.74h2.69c1.8,0,3.27,1.45,3.27,3.25,0,.04,0,.08,0,.12M99.73,148.41c.08-.95-.62-1.8-1.58-1.88-.07,0-.14,0-.21,0h-1.15v3.77h1.15c.96.03,1.76-.71,1.8-1.67,0-.07,0-.14,0-.21"></path><path id="Path_634" data-name="Path 634" class="cls-6" d="M160.12,235.28c-.99,0-1.79-.8-1.79-1.79h0v-7.9c-.02-.99.76-1.81,1.74-1.83.99-.02,1.81.76,1.83,1.74,0,.03,0,.06,0,.08v7.89c0,.99-.8,1.79-1.78,1.79h0"></path><path id="Path_635" data-name="Path 635" class="cls-6" d="M165.22,226.76l-4.29-2.12v5.34l4.29-2.12c.3-.15.43-.52.28-.82-.06-.12-.16-.22-.28-.28"></path><path id="Path_636" data-name="Path 636" class="cls-8" d="M144.6,230.89l-6.54,27.98c-.27,1.17.45,2.35,1.63,2.62.37.09.76.07,1.13-.04l6.87-2.08c1.15-.35,2.37.3,2.72,1.45l2.33,7.69c.35,1.15,1.56,1.8,2.72,1.46,0,0,0,0,0,0l5.43-1.64c1.15-.35,1.8-1.56,1.45-2.72,0,0,0,0,0,0l-2.33-7.69c-.35-1.15.3-2.37,1.45-2.72l6.87-2.08c1.15-.35,1.8-1.57,1.45-2.72-.11-.37-.32-.7-.6-.96l-20.96-19.66c-.88-.82-2.26-.78-3.08.1-.26.28-.45.62-.53,1"></path><path id="Path_637" data-name="Path 637" class="cls-6" d="M154.81,271.86c-1.75,0-3.29-1.15-3.8-2.82l-2.33-7.69c-.03-.1-.1-.18-.19-.23-.09-.05-.2-.06-.3-.03l-6.87,2.08c-2.1.64-4.31-.55-4.95-2.65-.2-.67-.22-1.37-.07-2.05l6.54-27.98c.5-2.13,2.63-3.46,4.77-2.96.68.16,1.3.49,1.81.97l20.96,19.66c1.6,1.5,1.68,4.01.18,5.61-.48.51-1.08.88-1.74,1.08l-6.86,2.08c-.21.06-.33.28-.26.49,0,0,0,0,0,0l2.33,7.69c.63,2.1-.55,4.31-2.65,4.95l-5.43,1.64c-.37.11-.76.17-1.15.17M148.32,257.5c1.75,0,3.28,1.15,3.79,2.82l2.33,7.69c.07.21.28.32.49.26l5.43-1.64c.21-.07.32-.28.26-.49l-2.33-7.69c-.63-2.1.55-4.31,2.65-4.95l6.87-2.08c.21-.06.33-.28.27-.49-.02-.07-.06-.13-.11-.17l-20.96-19.66c-.16-.15-.41-.14-.56.02-.05.05-.08.11-.1.18l-6.54,27.98c-.03.14,0,.28.11.38.1.1.25.13.38.09l6.87-2.08c.37-.11.76-.17,1.15-.17"></path><path id="Path_638" data-name="Path 638" class="cls-6" d="M146.62,222.2c-.99,0-1.79-.8-1.79-1.78h0v-6.14c-.02-.99.76-1.81,1.74-1.83.99-.02,1.81.76,1.83,1.74,0,.03,0,.06,0,.08v6.14c0,.99-.8,1.79-1.78,1.79h0"></path><path id="Path_639" data-name="Path 639" class="cls-6" d="M152.72,223.47c-.99,0-1.79-.8-1.78-1.79,0-.47.19-.92.52-1.26l3.25-3.25c.7-.7,1.83-.7,2.53,0s.7,1.83,0,2.53l-3.25,3.25c-.33.34-.79.52-1.26.52"></path><path id="Path_640" data-name="Path 640" class="cls-6" d="M140.53,223.47c-.47,0-.93-.19-1.26-.52l-3.25-3.25c-.7-.7-.7-1.83,0-2.53s1.83-.7,2.53,0l3.25,3.25c.7.7.7,1.83,0,2.53-.33.33-.79.52-1.26.52"></path><path id="Path_641" data-name="Path 641" class="cls-6" d="M206.57,73h-14.01c-.99-.02-1.77-.84-1.74-1.83.02-.95.79-1.72,1.74-1.74h14.01c.99-.02,1.81.76,1.83,1.74.02.99-.76,1.81-1.74,1.83-.03,0-.06,0-.08,0"></path><path id="Path_642" data-name="Path 642" class="cls-6" d="M197.08,94.34c-.47,0-.93-.19-1.26-.52l-7.42-7.42c-.7-.7-.7-1.83,0-2.53s1.83-.7,2.53,0l7.42,7.42c.7.7.7,1.83,0,2.53-.33.33-.79.52-1.26.52"></path><path id="Path_643" data-name="Path 643" class="cls-6" d="M189.66,59.09c-.99,0-1.79-.8-1.79-1.79,0-.47.19-.93.52-1.26l7.42-7.42c.7-.7,1.83-.7,2.53,0s.7,1.83,0,2.53l-7.42,7.42c-.33.34-.79.52-1.26.52"></path></svg>